<?xml version="1.0" encoding="UTF-8" standalone="no"?>
<svg width="200px" height="200px" viewBox="0 0 200 200" version="1.1" xmlns="http://www.w3.org/2000/svg" xmlns:xlink="http://www.w3.org/1999/xlink">
    <!-- Generator: Sketch 3.6.1 (26313) - http://www.bohemiancoding.com/sketch -->
    <title>twitter</title>
    <desc>Created with Sketch.</desc>
    <defs></defs>
    <g id="New-Site" stroke="none" stroke-width="1" fill="none" fill-rule="evenodd">
        <g id="twitter">
            <rect id="Rectangle-8" fill="#FFFFFF" x="23" y="21" width="161" height="166"></rect>
            <path d="M166,63.1328125 C162.390625,68.6757812 157.75,73.4453125 152.464844,77.1835937 C152.59375,78.34375 152.59375,79.5039062 152.59375,80.6640625 C152.59375,116.5 125.265625,157.75 75.5078125,157.75 C60.1679687,157.75 45.9882812,153.238281 34,145.632812 C36.0625,145.890625 38.2539062,146.019531 40.4453125,146.019531 C53.2070312,146.019531 64.8085937,141.636719 74.0898437,134.417969 C62.2304687,134.160156 52.3046875,126.296875 48.8242187,115.597656 C50.5,115.855469 52.1757812,116.113281 53.8515625,116.113281 C56.3007812,116.113281 58.1054687,115.726562 60.4257812,115.082031 C48.0507812,112.632812 38.125,101.675781 38.125,88.5273437 L38.125,88.2695312 C42.25,90.203125 46.5039062,91.4921875 51.015625,91.6210937 C43.6679687,86.7226562 39.2851562,78.4726562 39.2851562,69.0625 C39.2851562,64.1640625 40.703125,59.3945312 43.0234375,55.3984375 C56.4296875,71.8984375 76.4101562,82.5976562 98.96875,83.7578125 C98.453125,81.8242187 98.3242187,79.6328125 98.3242187,77.5703125 C98.3242187,62.6171875 110.441406,50.5 125.394531,50.5 C133.128906,50.5 140.21875,53.7226563 145.117187,59.0078125 C151.304687,57.8476562 157.105469,55.5273438 162.390625,52.4335938 C160.328125,58.75 156.074219,64.1640625 150.402344,67.515625 C155.945312,66.7421875 161.101562,65.3242187 166,63.1328125 L166,63.1328125 Z M199,38.125 C199,17.6289063 182.371094,1 161.875,1 L38.125,1 C17.6289062,1 1,17.6289063 1,38.125 L1,161.875 C1,182.371094 17.6289062,199 38.125,199 L161.875,199 C182.371094,199 199,182.371094 199,161.875 L199,38.125 Z" id="Type-something" fill="#333333"></path>
        </g>
    </g>
</svg>